<?xml version="1.0" encoding="UTF-8"?>
<!DOCTYPE svg PUBLIC "-//W3C//DTD SVG 1.0//EN" "http://www.w3.org/TR/2001/REC-SVG-20010904/DTD/svg10.dtd">
<!-- Creator: CorelDRAW -->
<svg xmlns="http://www.w3.org/2000/svg" xml:space="preserve" width="210.528mm" height="210.528mm" version="1.0" style="shape-rendering:geometricPrecision; text-rendering:geometricPrecision; image-rendering:optimizeQuality; fill-rule:evenodd; clip-rule:evenodd"
viewBox="0 0 1586.05 1586.05"
 xmlns:xlink="http://www.w3.org/1999/xlink"
 xmlns:xodm="http://www.corel.com/coreldraw/odm/2003">
 <defs>
  <style type="text/css">
   <![CDATA[
    .fil1 {fill:#EBECEC}
    .fil0 {fill:#EBECEC;fill-rule:nonzero}
   ]]>
  </style>
 </defs>
 <g id="Katman_x0020_1">
  <metadata id="CorelCorpID_0Corel-Layer"/>
  <path class="fil0" d="M985.3 856.81l28.34 -184.7 -177.22 0 0 -119.86c0,-50.53 24.76,-99.78 104.13,-99.78l80.57 -0 0 -157.25c0,0 -73.11,-12.48 -143.02,-12.48 -145.95,0 -241.35,88.46 -241.35,248.6l0 140.77 -162.23 0 0 184.7 162.23 0 0 446.49 199.67 -0 0 -446.49 148.88 0z"/>
  <path class="fil1" d="M793.02 0c437.97,0 793.02,355.05 793.02,793.02 0,437.97 -355.05,793.02 -793.02,793.02 -437.97,0 -793.02,-355.05 -793.02,-793.02 0,-437.97 355.05,-793.02 793.02,-793.02zm0 35.58c418.32,0 757.44,339.12 757.44,757.44 0,418.32 -339.12,757.44 -757.44,757.44 -418.32,0 -757.44,-339.12 -757.44,-757.44 0,-418.32 339.12,-757.44 757.44,-757.44z"/>
 </g>
</svg>
