<?xml version="1.0" encoding="UTF-8"?>
<!DOCTYPE svg PUBLIC "-//W3C//DTD SVG 1.0//EN" "http://www.w3.org/TR/2001/REC-SVG-20010904/DTD/svg10.dtd">
<!-- Creator: CorelDRAW -->
<svg xmlns="http://www.w3.org/2000/svg" xml:space="preserve" width="210.528mm" height="210.528mm" version="1.0" style="shape-rendering:geometricPrecision; text-rendering:geometricPrecision; image-rendering:optimizeQuality; fill-rule:evenodd; clip-rule:evenodd"
viewBox="0 0 4291.37 4291.37"
 xmlns:xlink="http://www.w3.org/1999/xlink"
 xmlns:xodm="http://www.corel.com/coreldraw/odm/2003">
 <defs>
  <style type="text/css">
   <![CDATA[
    .fil0 {fill:#EBECEC}
    .fil1 {fill:#EBECEC;fill-rule:nonzero}
   ]]>
  </style>
 </defs>
 <g id="Katman_x0020_1">
  <metadata id="CorelCorpID_0Corel-Layer"/>
  <path class="fil0" d="M2145.68 0c1185.03,0 2145.68,960.66 2145.68,2145.68 0,1185.03 -960.66,2145.68 -2145.68,2145.68 -1185.03,0 -2145.68,-960.66 -2145.68,-2145.68 0,-1185.03 960.66,-2145.68 2145.68,-2145.68zm0 96.27c1131.86,0 2049.41,917.55 2049.41,2049.41 0,1131.86 -917.55,2049.41 -2049.41,2049.41 -1131.86,0 -2049.41,-917.55 -2049.41,-2049.41 0,-1131.86 917.55,-2049.41 2049.41,-2049.41z"/>
  <path class="fil1" d="M2145.95 1526c-343.01,0 -619.68,276.67 -619.68,619.68 0,343.01 276.67,619.68 619.68,619.68 343.01,0 619.68,-276.67 619.68,-619.68 0,-343.01 -276.67,-619.68 -619.68,-619.68zm0 1022.55c-221.66,0 -402.87,-180.67 -402.87,-402.87 0,-222.2 180.67,-402.87 402.87,-402.87 222.2,0 402.87,180.67 402.87,402.87 0,222.2 -181.21,402.87 -402.87,402.87zm789.57 -1047.9c0,80.36 -64.72,144.54 -144.54,144.54 -80.36,0 -144.54,-64.72 -144.54,-144.54 0,-79.82 64.72,-144.54 144.54,-144.54 79.82,0 144.54,64.72 144.54,144.54zm410.42 146.69c-9.17,-193.62 -53.39,-365.12 -195.23,-506.42 -141.3,-141.3 -312.81,-185.53 -506.42,-195.23 -199.55,-11.33 -797.66,-11.33 -997.21,0 -193.08,9.17 -364.58,53.39 -506.42,194.7 -141.84,141.3 -185.53,312.81 -195.23,506.42 -11.33,199.55 -11.33,797.66 0,997.21 9.17,193.62 53.39,365.12 195.23,506.42 141.84,141.3 312.81,185.53 506.42,195.23 199.55,11.33 797.66,11.33 997.21,0 193.62,-9.17 365.12,-53.39 506.42,-195.23 141.3,-141.3 185.53,-312.81 195.23,-506.42 11.33,-199.55 11.33,-797.12 0,-996.67l0 -0zm-257.8 1210.78c-42.07,105.71 -123.51,187.14 -229.75,229.75 -159.1,63.1 -536.62,48.54 -712.44,48.54 -175.82,0 -553.88,14.02 -712.45,-48.54 -105.71,-42.07 -187.14,-123.51 -229.75,-229.75 -63.1,-159.1 -48.54,-536.62 -48.54,-712.44 0,-175.82 -14.02,-553.88 48.54,-712.45 42.07,-105.71 123.51,-187.14 229.75,-229.75 159.1,-63.1 536.62,-48.54 712.45,-48.54 175.82,0 553.88,-14.02 712.44,48.54 105.71,42.07 187.14,123.51 229.75,229.75 63.1,159.1 48.54,536.62 48.54,712.45 0,175.82 14.56,553.88 -48.54,712.44z"/>
 </g>
</svg>
