<?xml version="1.0" encoding="UTF-8"?>
<!DOCTYPE svg PUBLIC "-//W3C//DTD SVG 1.0//EN" "http://www.w3.org/TR/2001/REC-SVG-20010904/DTD/svg10.dtd">
<!-- Creator: CorelDRAW -->
<svg xmlns="http://www.w3.org/2000/svg" xml:space="preserve" width="210.528mm" height="210.528mm" version="1.0" style="shape-rendering:geometricPrecision; text-rendering:geometricPrecision; image-rendering:optimizeQuality; fill-rule:evenodd; clip-rule:evenodd"
viewBox="0 0 2685.63 2685.63"
 xmlns:xlink="http://www.w3.org/1999/xlink"
 xmlns:xodm="http://www.corel.com/coreldraw/odm/2003">
 <defs>
  <style type="text/css">
   <![CDATA[
    .fil1 {fill:#EBECEC}
    .fil0 {fill:#EBECEC;fill-rule:nonzero}
   ]]>
  </style>
 </defs>
 <g id="Katman_x0020_1">
  <metadata id="CorelCorpID_0Corel-Layer"/>
  <path class="fil0" d="M937.99 2060.57l-313.49 0 0 -1009.52 313.49 0 0 1009.52zm-156.91 -1147.23c-100.24,0 -181.55,-83.03 -181.55,-183.27 0,-100.25 81.3,-181.55 181.55,-181.55 100.25,0 181.55,81.3 181.55,181.55 0,100.24 -81.34,183.27 -181.55,183.27l-0 0zm1330.2 1147.23l-312.81 0 0 -491.43c0,-117.12 -2.36,-267.31 -162.99,-267.31 -162.99,0 -187.96,127.24 -187.96,258.88l-0 499.87 -313.15 0 0 -1009.52 300.66 0 0 137.71 4.39 0c41.85,-79.32 144.09,-163.02 296.61,-163.02 317.27,0 375.59,208.92 375.59,480.29l0 554.54 -0.34 0z"/>
  <path class="fil1" d="M1342.81 0c741.62,0 1342.81,601.2 1342.81,1342.81 0,741.62 -601.2,1342.81 -1342.81,1342.81 -741.62,0 -1342.81,-601.2 -1342.81,-1342.81 0,-741.62 601.2,-1342.81 1342.81,-1342.81zm0 60.25c708.34,0 1282.57,574.22 1282.57,1282.57 0,708.34 -574.22,1282.57 -1282.57,1282.57 -708.34,0 -1282.57,-574.22 -1282.57,-1282.57 0,-708.34 574.22,-1282.57 1282.57,-1282.57z"/>
 </g>
</svg>
