<?xml version="1.0" encoding="UTF-8"?>
<!DOCTYPE svg PUBLIC "-//W3C//DTD SVG 1.0//EN" "http://www.w3.org/TR/2001/REC-SVG-20010904/DTD/svg10.dtd">
<!-- Creator: CorelDRAW -->
<svg xmlns="http://www.w3.org/2000/svg" xml:space="preserve" width="210.528mm" height="210.528mm" version="1.0" style="shape-rendering:geometricPrecision; text-rendering:geometricPrecision; image-rendering:optimizeQuality; fill-rule:evenodd; clip-rule:evenodd"
viewBox="0 0 2001.95 2001.95"
 xmlns:xlink="http://www.w3.org/1999/xlink"
 xmlns:xodm="http://www.corel.com/coreldraw/odm/2003">
 <defs>
  <style type="text/css">
   <![CDATA[
    .fil0 {fill:#EBECEC}
    .fil1 {fill:#EBECEC;fill-rule:nonzero}
   ]]>
  </style>
 </defs>
 <g id="Katman_x0020_1">
  <metadata id="CorelCorpID_0Corel-Layer"/>
  <path class="fil0" d="M1000.98 0c552.82,0 1000.98,448.15 1000.98,1000.98 0,552.82 -448.15,1000.98 -1000.98,1000.98 -552.82,0 -1000.98,-448.15 -1000.98,-1000.98 0,-552.82 448.15,-1000.98 1000.98,-1000.98zm0 44.91c528.02,0 956.07,428.05 956.07,956.07 0,528.02 -428.05,956.07 -956.07,956.07 -528.02,0 -956.07,-428.05 -956.07,-956.07 0,-528.02 428.05,-956.07 956.07,-956.07z"/>
  <path class="fil1" d="M1031.17 373.11c-258.14,0 -513.26,172.09 -513.26,450.61 0,177.12 99.63,277.76 160.02,277.76 24.91,0 39.25,-69.44 39.25,-89.07 0,-23.4 -59.63,-73.21 -59.63,-170.58 0,-202.28 153.98,-345.7 353.24,-345.7 171.34,0 298.14,97.37 298.14,276.25 0,133.6 -53.59,384.19 -227.19,384.19 -62.65,0 -116.24,-45.29 -116.24,-110.2 0,-95.1 66.42,-187.19 66.42,-285.31 0,-166.56 -236.25,-136.37 -236.25,64.91 0,42.27 5.28,89.07 24.15,127.56 -34.72,149.45 -105.67,372.11 -105.67,526.09 0,47.55 6.79,94.35 11.32,141.9 8.55,9.56 4.28,8.55 17.36,3.77 126.81,-173.6 122.28,-207.57 179.64,-434.76 30.95,58.87 110.95,90.58 174.36,90.58 267.2,0 387.21,-260.4 387.21,-495.14 0,-249.84 -215.87,-412.87 -452.87,-412.87z"/>
 </g>
</svg>
